<?xml version="1.0" encoding="UTF-8"?>
<svg xmlns="http://www.w3.org/2000/svg" xmlns:xlink="http://www.w3.org/1999/xlink" width="2834.88" height="2834.88" viewBox="0 0 2834.88 2834.88">
<path fill-rule="evenodd" fill="rgb(0%, 0%, 0%)" fill-opacity="1" d="M 1158.480469 1698.101562 L 1137.628906 1692.488281 C 1137.628906 1692.488281 1079.910156 1678.308594 1024.351562 1645.121094 C 997.625 1629.148438 980.277344 1603.949219 953.296875 1582.960938 C 870.226562 1518.351562 882.535156 1493.738281 864.074219 1395.28125 C 845.613281 1296.828125 784.082031 1235.300781 784.082031 1235.300781 C 784.082031 1235.300781 737.933594 1204.878906 692.25 1167.070312 C 646.566406 1129.261719 567.804688 1108.789062 545.753906 1064.679688 C 523.699219 1020.570312 543.390625 954.949219 570.167969 937.621094 C 586.867188 926.820312 608.644531 916.269531 622.894531 893.589844 C 631.492188 879.890625 633.347656 855.761719 641.054688 841.53125 C 661.53125 803.730469 702.488281 789.550781 770.226562 767.5 C 797.578125 758.589844 831.351562 756.878906 864.285156 759.660156 C 866.726562 754.558594 872.300781 744.769531 884.828125 726.019531 C 909.773438 688.699219 950.46875 647.738281 950.46875 647.738281 C 950.46875 647.738281 974.097656 626.800781 988.539062 665.941406 C 997.730469 690.851562 1004.261719 764.421875 1007.789062 814.628906 C 1051.320312 854.039062 1114.929688 922.070312 1114.929688 922.070312 C 1114.929688 922.070312 1148.601562 968.738281 1202.75 1015.5 C 1256.898438 1062.269531 1306.121094 1104.109375 1402.121094 1121.339844 C 1498.109375 1138.570312 1503.03125 1118.878906 1670.398438 1094.261719 C 1837.769531 1069.648438 1855 1099.191406 1855 1099.191406 C 1855 1099.191406 1845.160156 1062.269531 1867.308594 1013.039062 C 1889.460938 963.808594 1965.761719 953.96875 2037.140625 985.96875 C 2108.519531 1017.960938 2118.359375 1173.03125 2118.359375 1173.03125 C 2118.359375 1173.03125 2153.238281 1239.769531 2188.691406 1294.898438 C 2215.550781 1336.691406 2220.929688 1421.46875 2219.378906 1497.789062 C 2218.878906 1522.160156 2217.691406 1545.671875 2216.261719 1566.628906 C 2210.351562 1653.269531 2244.210938 1805.199219 2277.480469 1839.472656 C 2310.75 1873.75 2295.628906 1916.09375 2290.578125 1980.617188 C 2285.539062 2045.140625 2293.210938 2142.589844 2293.210938 2142.589844 C 2293.210938 2142.589844 2288.371094 2165.171875 2266.589844 2175.65625 C 2244.808594 2186.144531 2173.839844 2179.691406 2173.839844 2179.691406 C 2173.839844 2179.691406 2137.539062 2156.300781 2145.609375 2135.332031 C 2153.679688 2114.363281 2177.058594 2105.488281 2189.160156 2068.390625 C 2201.261719 2031.289062 2199.839844 2011.296875 2198.261719 1964.039062 C 2196.691406 1916.78125 2151 1875.824219 2116.351562 1833.289062 C 2081.691406 1790.761719 2026.558594 1734.050781 2026.558594 1734.050781 C 2026.558594 1734.050781 1971.851562 1658.640625 1931.261719 1619.160156 C 1922.238281 1610.390625 1913.929688 1603.398438 1907.058594 1599.390625 C 1869.25 1577.339844 1815.699219 1630.898438 1766.859375 1660.828125 C 1718.03125 1690.761719 1560.511719 1731.710938 1503.789062 1733.289062 C 1475.621094 1734.070312 1416.761719 1730.808594 1364.640625 1727.339844 C 1363.988281 1733.359375 1362.730469 1744.308594 1360.320312 1764.179688 C 1355.28125 1805.769531 1358.589844 1896.621094 1362.371094 1950.8125 C 1366.148438 2005 1364.890625 2023.902344 1344.730469 2052.886719 C 1324.558594 2081.871094 1310.699219 2172.605469 1310.699219 2172.605469 C 1310.699219 2172.605469 1288.019531 2183.949219 1230.050781 2191.511719 C 1172.078125 2199.070312 1149.390625 2171.347656 1143.089844 2152.445312 C 1136.789062 2133.539062 1222.488281 2104.554688 1222.488281 2104.554688 C 1222.488281 2104.554688 1253.988281 2040.285156 1257.769531 2010.039062 C 1261.550781 1979.796875 1239.890625 1932.105469 1222.660156 1853.34375 C 1211.488281 1802.28125 1179.558594 1737.410156 1158.480469 1698.101562 Z M 1190.398438 1811.640625 C 1185.589844 1850.582031 1181.960938 1895.472656 1180.160156 1927.300781 C 1177.238281 1979.238281 1173.738281 1997.039062 1150.859375 2022.101562 C 1127.980469 2047.167969 1103.679688 2131.65625 1103.679688 2131.65625 C 1103.679688 2131.65625 1080.519531 2139.65625 1023.921875 2139.742188 C 967.308594 2139.828125 948.875 2110.71875 945.109375 2091.988281 C 941.34375 2073.261719 1027.179688 2056.21875 1027.179688 2056.21875 C 1027.179688 2056.21875 1065.21875 1999.027344 1072.511719 1970.761719 C 1079.808594 1942.492188 1064.769531 1894.542969 1057.75 1817.621094 C 1053.148438 1767.25 1029.921875 1700.910156 1014.421875 1661.109375 C 1014.511719 1661.171875 1014.609375 1661.21875 1014.699219 1661.28125 C 1070.769531 1694.78125 1128.960938 1709.71875 1132.921875 1710.71875 C 1132.898438 1710.710938 1145.699219 1714.148438 1145.699219 1714.148438 C 1159.710938 1740.691406 1177.421875 1776.640625 1190.398438 1811.640625 Z M 1981.261719 1706.839844 C 1976.359375 1774.519531 1982.191406 1847.378906 1998.328125 1872.441406 C 2022.109375 1909.339844 2000.019531 1943.539062 1982.851562 1999.300781 C 1965.671875 2055.058594 1953.710938 2142.367188 1953.710938 2142.367188 C 1953.710938 2142.367188 1944.878906 2161.257812 1922.910156 2166.074219 C 1900.941406 2170.894531 1837.238281 2150.84375 1837.238281 2150.84375 C 1837.238281 2150.84375 1808.578125 2122.910156 1820.039062 2106.089844 C 1831.511719 2089.269531 1854.640625 2086.199219 1872.941406 2056 C 1891.230469 2025.804688 1893.820312 2007.921875 1901.578125 1966.015625 C 1909.339844 1924.109375 1875.511719 1878.816406 1852.070312 1834.371094 C 1828.628906 1789.929688 1789.21875 1728.859375 1789.21875 1728.859375 C 1789.21875 1728.859375 1780 1708.679688 1767.050781 1683.210938 C 1770.78125 1681.308594 1774.160156 1679.441406 1777.148438 1677.609375 C 1805.890625 1659.988281 1836.199219 1633.898438 1863.941406 1620.621094 C 1876.140625 1614.789062 1887.359375 1610.691406 1897.140625 1616.390625 C 1902.960938 1619.789062 1909.898438 1625.839844 1917.53125 1633.269531 C 1938.210938 1653.378906 1962.621094 1683.039062 1981.261719 1706.839844 Z M 865.949219 721.941406 C 860.726562 729.898438 856.875 736.101562 854.03125 740.921875 C 822.4375 739.289062 790.820312 741.871094 764.652344 750.390625 C 758.535156 752.378906 752.621094 754.328125 746.914062 756.238281 C 750.644531 749.550781 757.652344 736.941406 767.804688 718.460938 C 783.675781 689.570312 811.820312 656.078125 811.820312 656.078125 C 811.820312 656.078125 828.488281 638.589844 844.546875 663.5 C 851.042969 673.578125 858.898438 697.289062 865.949219 721.941406 "/>
</svg>
